<svg xmlns="http://www.w3.org/2000/svg" viewBox="0 0 32 32" width="32" height="32">
  <defs>
    <linearGradient id="grad1" x1="0%" y1="0%" x2="100%" y2="100%">
      <stop offset="0%" style="stop-color:#667eea;stop-opacity:1" />
      <stop offset="100%" style="stop-color:#764ba2;stop-opacity:1" />
    </linearGradient>
  </defs>
  
  <!-- 书本图标 -->
  <rect x="4" y="8" width="20" height="16" rx="1" fill="url(#grad1)" opacity="0.9"/>
  <rect x="6" y="10" width="16" height="12" fill="white" opacity="0.9"/>
  
  <!-- 书页线条 -->
  <line x1="8" y1="12" x2="20" y2="12" stroke="#667eea" stroke-width="1" opacity="0.6"/>
  <line x1="8" y1="14" x2="18" y2="14" stroke="#667eea" stroke-width="1" opacity="0.6"/>
  <line x1="8" y1="16" x2="19" y2="16" stroke="#667eea" stroke-width="1" opacity="0.6"/>
  <line x1="8" y1="18" x2="17" y2="18" stroke="#667eea" stroke-width="1" opacity="0.6"/>
  <line x1="8" y1="20" x2="20" y2="20" stroke="#667eea" stroke-width="1" opacity="0.6"/>
  
  <!-- 思维导图节点 -->
  <circle cx="14" cy="14" r="1.5" fill="#764ba2"/>
  <circle cx="10" cy="10" r="1" fill="#667eea"/>
  <circle cx="18" cy="10" r="1" fill="#667eea"/>
  <circle cx="10" cy="18" r="1" fill="#667eea"/>
  <circle cx="18" cy="18" r="1" fill="#667eea"/>
  
  <!-- 连接线 -->
  <line x1="14" y1="14" x2="10" y2="10" stroke="#764ba2" stroke-width="0.5" opacity="0.5"/>
  <line x1="14" y1="14" x2="18" y2="10" stroke="#764ba2" stroke-width="0.5" opacity="0.5"/>
  <line x1="14" y1="14" x2="10" y2="18" stroke="#764ba2" stroke-width="0.5" opacity="0.5"/>
  <line x1="14" y1="14" x2="18" y2="18" stroke="#764ba2" stroke-width="0.5" opacity="0.5"/>
</svg>
